<?xml version="1.0" encoding="UTF-8" standalone="no" ?>
<!DOCTYPE svg PUBLIC "-//W3C//DTD SVG 1.1//EN" "http://www.w3.org/Graphics/SVG/1.1/DTD/svg11.dtd">
<svg xmlns="http://www.w3.org/2000/svg" xmlns:xlink="http://www.w3.org/1999/xlink" version="1.1" width="500" height="500" viewBox="0 0 500 500" xml:space="preserve">
<desc>Created with Fabric.js 4.6.0</desc>
<defs>
</defs>
<g transform="matrix(1 0 0 1 239.5 232.72)" id="rIkVCzlJMyYYpkuY67F9B"  >
<path style="stroke: rgb(0,0,0); stroke-width: 1; stroke-dasharray: none; stroke-linecap: butt; stroke-dashoffset: 0; stroke-linejoin: miter; stroke-miterlimit: 4; fill: rgb(255,255,255); fill-opacity: 0; fill-rule: nonzero; opacity: 1;" vector-effect="non-scaling-stroke"  transform=" translate(0, 0)" d="M 0 41.69976 L 0 -41.69976" stroke-linecap="round" />
</g>
<g transform="matrix(0.5 0 0 0.5 239.5 197.08)" id="sMoOIfQF7Hp5U1-wOGvhh"  >
<path style="stroke: rgb(195,134,55); stroke-width: 0; stroke-dasharray: none; stroke-linecap: butt; stroke-dashoffset: 0; stroke-linejoin: miter; stroke-miterlimit: 4; fill: rgb(0,0,0); fill-rule: nonzero; opacity: 1;" vector-effect="non-scaling-stroke"  transform=" translate(0, 0)" d="M 0 -19.5 C 10.764 -19.5 19.5 -10.764 19.5 0 C 19.5 10.764 10.764 19.5 0 19.5 C -10.764 19.5 -19.5 10.764 -19.5 0 C -19.5 -10.764 -10.764 -19.5 0 -19.5 z" stroke-linecap="round" />
</g>
<g transform="matrix(0.5 0 0 0.5 239 267.84)" id="sdyW2vo5bM-kfTffR4snM"  >
<path style="stroke: rgb(195,134,55); stroke-width: 0; stroke-dasharray: none; stroke-linecap: butt; stroke-dashoffset: 0; stroke-linejoin: miter; stroke-miterlimit: 4; fill: rgb(0,0,0); fill-rule: nonzero; opacity: 1;" vector-effect="non-scaling-stroke"  transform=" translate(0, 0)" d="M 0 -19.5 C 10.764 -19.5 19.5 -10.764 19.5 0 C 19.5 10.764 10.764 19.5 0 19.5 C -10.764 19.5 -19.5 10.764 -19.5 0 C -19.5 -10.764 -10.764 -19.5 0 -19.5 z" stroke-linecap="round" />
</g>
</svg>